<svg xmlns="http://www.w3.org/2000/svg" xmlns:xlink="http://www.w3.org/1999/xlink" viewBox="0 0 800 600"><defs><style>.cls-1{fill:none;}.cls-2{fill:#f26769;}.cls-3{clip-path:url(#clip-path);}.cls-4{fill:#9c393c;}.cls-5{fill:#e46664;}.cls-6{fill:#e08585;}.cls-7{fill:#fff;}.cls-8{fill:#354b67;}</style><clipPath id="clip-path"><rect class="cls-1" x="32.58" y="139" width="186.92" height="186.2"/></clipPath></defs><g id="Layer_1" data-name="Layer 1"><path class="cls-2" d="M264.6,318.23a52.29,52.29,0,0,1-19.31-18.94,51.61,51.61,0,0,1,0-52.28,52.08,52.08,0,0,1,19.31-18.86,52.93,52.93,0,0,1,26.63-6.93,54.39,54.39,0,0,1,21.53,4.48,46.19,46.19,0,0,1,18,13.87,44.24,44.24,0,0,1,7.87,15.35,6,6,0,0,1-5.71,7.74H321.22a6,6,0,0,1-5.65-4,23.1,23.1,0,0,0-8.21-11.34q-6.94-4.92-16.79-4.92a29.53,29.53,0,0,0-14.77,3.76,27.25,27.25,0,0,0-10.58,10.76,36.49,36.49,0,0,0,0,32.87,26.57,26.57,0,0,0,10.58,10.62A30.3,30.3,0,0,0,290.57,304a28,28,0,0,0,16.71-4.93,23.1,23.1,0,0,0,8.22-11.28,6,6,0,0,1,5.63-4h11.81a6,6,0,0,1,5.71,7.74,44,44,0,0,1-7.83,15.32,46,46,0,0,1-18,13.83,54.55,54.55,0,0,1-21.6,4.49A52.66,52.66,0,0,1,264.6,318.23Z"/><path class="cls-2" d="M365.44,320A36.66,36.66,0,0,1,353,305.39a45.75,45.75,0,0,1-4.49-20.25A44.93,44.93,0,0,1,353,265a37.26,37.26,0,0,1,12.44-14.63,30.47,30.47,0,0,1,17.69-5.44A33.17,33.17,0,0,1,398,248.11a23.9,23.9,0,0,1,7,5.07,1.67,1.67,0,0,0,2.9-1.13v-3a1.68,1.68,0,0,1,1.68-1.68h18a1.68,1.68,0,0,1,1.68,1.68v72.24a1.68,1.68,0,0,1-1.68,1.68h-18a1.68,1.68,0,0,1-1.67-1.68v-2.89a1.68,1.68,0,0,0-2.91-1.13,23.84,23.84,0,0,1-6.94,5,33.08,33.08,0,0,1-14.67,3.14A31.09,31.09,0,0,1,365.44,320ZM398,302.14a18.11,18.11,0,0,0,6.56-7,20.67,20.67,0,0,0,2.41-10,20.43,20.43,0,0,0-2.41-9.82,18.66,18.66,0,0,0-6.56-7.11,16.8,16.8,0,0,0-9.13-2.63,18,18,0,0,0-9.15,2.37,17,17,0,0,0-6.53,6.83,21.37,21.37,0,0,0-2.41,10.36,21.65,21.65,0,0,0,2.44,10.62,16.49,16.49,0,0,0,6.57,6.67,18.4,18.4,0,0,0,9,2.26A17.28,17.28,0,0,0,398,302.14Z"/><path class="cls-2" d="M448.26,220.12h19.12a1.68,1.68,0,0,1,1.68,1.68v99.46a1.68,1.68,0,0,1-1.68,1.68H448.26a1.69,1.69,0,0,1-1.68-1.68V221.8A1.68,1.68,0,0,1,448.26,220.12Z"/><path class="cls-2" d="M490.58,236.83a11.2,11.2,0,0,1-4.56-4.38,12.82,12.82,0,0,1,0-12.26,11.47,11.47,0,0,1,4.56-4.41,14.74,14.74,0,0,1,7.16-1.64,15.09,15.09,0,0,1,7.26,1.64,11.36,11.36,0,0,1,4.59,4.41,12.22,12.22,0,0,1,1.57,6.13,11.54,11.54,0,0,1-3.57,8.69c-2.39,2.28-5.69,3.43-9.93,3.43A14.8,14.8,0,0,1,490.58,236.83Zm-2.4,10.51h19.11A1.68,1.68,0,0,1,509,249v72.24a1.68,1.68,0,0,1-1.68,1.68H488.18a1.68,1.68,0,0,1-1.68-1.68V249A1.68,1.68,0,0,1,488.18,247.34Z"/><path class="cls-2" d="M518.83,264.78V249a1.68,1.68,0,0,1,1.67-1.68h10.66a1.68,1.68,0,0,0,1.67-1.68V244a30,30,0,0,1,2.41-11.75,21.73,21.73,0,0,1,7.92-9.48q5.51-3.8,14.27-3.8H572a1.69,1.69,0,0,1,1.68,1.68v15.18a1.68,1.68,0,0,1-1.68,1.68h-8.61a7.49,7.49,0,0,0-6,2.41,8.48,8.48,0,0,0-2.08,5.76h0a1.68,1.68,0,0,0,1.68,1.68h14.81a1.68,1.68,0,0,1,1.68,1.68v15.76a1.68,1.68,0,0,1-1.68,1.68H556.92a1.68,1.68,0,0,0-1.68,1.68v53.12a1.68,1.68,0,0,1-1.68,1.68h-19a1.69,1.69,0,0,1-1.68-1.68V268.14a1.68,1.68,0,0,0-1.67-1.68H520.5A1.68,1.68,0,0,1,518.83,264.78Z"/><path class="cls-2" d="M587.2,236.83a11.08,11.08,0,0,1-4.56-4.38,12.75,12.75,0,0,1,0-12.26,11.34,11.34,0,0,1,4.56-4.41,14.7,14.7,0,0,1,7.15-1.64,15.09,15.09,0,0,1,7.26,1.64,11.38,11.38,0,0,1,4.6,4.41,12.32,12.32,0,0,1,1.57,6.13A11.54,11.54,0,0,1,604.2,235q-3.57,3.42-9.92,3.43A14.74,14.74,0,0,1,587.2,236.83Zm-2.41,10.51h19.12a1.68,1.68,0,0,1,1.68,1.68v72.24a1.68,1.68,0,0,1-1.68,1.68H584.79a1.68,1.68,0,0,1-1.68-1.68V249A1.68,1.68,0,0,1,584.79,247.34Z"/><path class="cls-2" d="M637.77,319.94a37.73,37.73,0,0,1-14.09-14.63,42.9,42.9,0,0,1,0-40.31,38.14,38.14,0,0,1,14.09-14.63,38.83,38.83,0,0,1,20.43-5.44,40.45,40.45,0,0,1,18.17,4,37.3,37.3,0,0,1,13.39,11,40.36,40.36,0,0,1,6.73,13.77,1.69,1.69,0,0,1-1.62,2.14H675.34a1.66,1.66,0,0,1-1.5-1,14.18,14.18,0,0,0-5.79-6.65,19.42,19.42,0,0,0-10.84-2.46A12.72,12.72,0,0,0,655,266a16.79,16.79,0,0,0-11.68,8.67,21.42,21.42,0,0,0-2.4,10.44,21.83,21.83,0,0,0,2.4,10.51,16.76,16.76,0,0,0,15,9,17.72,17.72,0,0,0,9.89-2.73,15,15,0,0,0,5.73-7.72,1.66,1.66,0,0,1,1.56-1.07h19.48a1.69,1.69,0,0,1,1.63,2.1,41.39,41.39,0,0,1-6.62,14.53,36.53,36.53,0,0,1-13.43,11.42,40,40,0,0,1-18.31,4.12A39.08,39.08,0,0,1,637.77,319.94Z"/><path class="cls-2" d="M721.46,320A36.66,36.66,0,0,1,709,305.39a45.75,45.75,0,0,1-4.48-20.25A44.93,44.93,0,0,1,709.06,265a37.26,37.26,0,0,1,12.44-14.63,30.53,30.53,0,0,1,17.7-5.44A33.15,33.15,0,0,1,754,248.11a23.9,23.9,0,0,1,7,5.07,1.67,1.67,0,0,0,2.9-1.13v-3a1.68,1.68,0,0,1,1.68-1.68h17.95a1.68,1.68,0,0,1,1.68,1.68v72.24a1.68,1.68,0,0,1-1.68,1.68h-18a1.68,1.68,0,0,1-1.68-1.68v-2.89a1.68,1.68,0,0,0-2.91-1.13,23.71,23.71,0,0,1-6.94,5,33,33,0,0,1-14.67,3.14A31.14,31.14,0,0,1,721.46,320ZM754,302.14a18.21,18.21,0,0,0,6.57-7,20.77,20.77,0,0,0,2.4-10,20.53,20.53,0,0,0-2.4-9.82,18.76,18.76,0,0,0-6.57-7.11,16.74,16.74,0,0,0-9.12-2.63,18,18,0,0,0-9.16,2.37,17,17,0,0,0-6.53,6.83,23.86,23.86,0,0,0,0,21,16.41,16.41,0,0,0,6.56,6.67,18.4,18.4,0,0,0,9,2.26A17.25,17.25,0,0,0,754,302.14Z"/></g><g id="Layer_5" data-name="Layer 5"><g class="cls-3"><path class="cls-4" d="M101.88,371c14.25-8.21,32.35-11,47.79-4.69,9.63,3.93,18.07,10.05,25.85,17a82.13,82.13,0,1,0-91,6.13C88,381.41,94.36,375.29,101.88,371Z"/><path class="cls-5" d="M193.5,264c-7-8.43-13.28-13.26-19.31-17.93s-11.86-9.18-17.44-16.92c-9.53-12.94-10.35-15.64-8.56-19.57a8.87,8.87,0,0,1,7.22-4.78c4.63-.39,7.94-2.57,9.84-6.48a11.27,11.27,0,0,0-13.17-15.64,11.19,11.19,0,0,0-7.61,7c-.39,1.3-1.94,4.83-4.33,5.75a4.37,4.37,0,0,1-3.91-.63c-2.64-1.58-2.43-4.88.68-10.68,3.08-5.35,3.21-9.5.45-14.8s-8.74-6.73-11.85-6.73h-.14c-3.1,0-9.09,1.42-11.85,6.73s-2.63,9.45.44,14.77c3.12,5.83,3.34,9.13.69,10.71a4.37,4.37,0,0,1-3.91.63c-2.39-.92-3.94-4.45-4.34-5.77a11.17,11.17,0,0,0-7.59-6.94,11.27,11.27,0,0,0-13.17,15.64c1.89,3.91,5.2,6.09,9.84,6.48a8.87,8.87,0,0,1,7.21,4.78c1.79,3.93,1,6.63-8.56,19.59-5.58,7.72-11.33,12.17-17.44,16.9s-12.28,9.5-19.3,17.92C43.67,280.05,36.79,301.71,38,325A85.28,85.28,0,0,0,50.21,364l.26.42c5.14,7.79,13.73,4.74,14.77,4.33l.1,0A6.8,6.8,0,0,0,69.51,364a9.56,9.56,0,0,0-1.88-7.82c-.1-.12-8.43-10.95-10.53-31.74A68.85,68.85,0,0,1,70,278.4a1.87,1.87,0,0,1,2.72-.25A2,2,0,0,1,73,281h0a65.64,65.64,0,0,0-12,43.11c1.9,18.91,9.36,29.22,9.68,29.65a13.24,13.24,0,0,1,2.64,11.21,10.74,10.74,0,0,1-5.23,6.83,13.79,13.79,0,0,1-1.34.64l-.41.15-.27.11h0c-.62.22-1.15.39-1.58.52l3.36,8c3.94,9.54,17.43,9.65,18,9.65h16.44c8.49,0,12-5.49,12.69-8.35l2.46-9.2a67.36,67.36,0,0,0,7.32.39h1.38a67.24,67.24,0,0,0,7.32-.39l2.45,9.16c.67,2.9,4.21,8.39,12.7,8.39H165c.58,0,14.07-.11,18-9.64l3.4-8.05-.12,0a14.22,14.22,0,0,1-3.76-1.43l-.67-.47a10.71,10.71,0,0,1-4.31-6.25c-1.46-5.84,2-10.43,2.7-11.29.09-.1,7.7-10.44,9.63-29.6a65.9,65.9,0,0,0-12.34-43.52h0a2.16,2.16,0,0,1,.4-2.24l.28-.23a2.06,2.06,0,0,1,2.58.3,68.78,68.78,0,0,1,13,46c-2,20-9.6,30.56-10.46,31.7-.06.07-3,3.63-2,7.9a6.67,6.67,0,0,0,2.42,3.77l.46.36a11.12,11.12,0,0,0,3,1.08l.1,0,.3.07.88.16h0a11.37,11.37,0,0,0,11.92-5.08l.26-.42a85.25,85.25,0,0,0,12.16-39C214.09,301.71,207.21,280.05,193.5,264Z"/><path class="cls-4" d="M110,227.71a1.47,1.47,0,0,1-1.38-2,17.79,17.79,0,0,1,33.47,0,1.46,1.46,0,1,1-2.75,1,14.86,14.86,0,0,0-28,0A1.46,1.46,0,0,1,110,227.71Z"/><path class="cls-4" d="M148.23,287.55a1.46,1.46,0,0,0-1.46,1.46,20.41,20.41,0,0,1-40.82.55,12.18,12.18,0,0,0,4.28-5.5,1.44,1.44,0,0,0-.92-1.83,1.46,1.46,0,0,0-1.85.91c-.08.23-2,5.73-9.8,6.32a1.46,1.46,0,0,0,.11,2.92h.11a16.56,16.56,0,0,0,5.24-1.22A23.33,23.33,0,0,0,149.69,289,1.46,1.46,0,0,0,148.23,287.55Z"/><circle class="cls-6" cx="95.92" cy="193.06" r="6.09"/><circle class="cls-6" cx="154.68" cy="193.06" r="6.09"/><circle class="cls-6" cx="125.44" cy="175.57" r="6.99"/><path class="cls-6" d="M143.92,343.12c-3.13,3.14-10.22,5.33-18.48,5.33s-15.35-2.19-18.48-5.32c3.86-4.6,10.69-7.66,18.48-7.66S140.07,338.53,143.92,343.12Z"/><path class="cls-6" d="M94.36,356.64c2-2.47,6.56-4.19,11.87-4.19s9.85,1.72,11.87,4.19a14.71,14.71,0,0,1-23.74,0Z"/><path class="cls-6" d="M133,356.64c2-2.47,6.56-4.19,11.86-4.19s9.85,1.72,11.86,4.19a14.69,14.69,0,0,1-23.72,0Z"/><circle class="cls-7" cx="125.49" cy="254.67" r="20.97"/><path class="cls-8" d="M139.33,248.08v0c-.07-.27-.15-.52-.24-.78,0,0,0-.1-.05-.15l-.27-.72a.42.42,0,0,1,0-.1c-.11-.25-.22-.5-.34-.74l-.15-.29c-.07-.14-.14-.28-.22-.41a3.35,3.35,0,0,0-.21-.36c-.12-.22-.27-.43-.39-.65a5.41,5.41,0,0,0-.7-1h0l-.16-.19,0,0c-.13-.17-.28-.33-.42-.49l0,0,0,0a.8.8,0,0,0-1.37.72,7.82,7.82,0,1,1-15.39,1.92,7.73,7.73,0,0,1,1.91-5.11.8.8,0,0,0-.88-1.28,14.35,14.35,0,0,0-6.45,4.85l0,0c-.12.17-.25.34-.37.52l0,.08c-.11.16-.21.32-.31.48l-.08.13-.25.43c0,.07-.07.13-.1.2l-.2.38-.12.26-.15.32c0,.11-.1.23-.14.34a1.86,1.86,0,0,0-.1.25c-.06.14-.11.28-.16.42s0,.1,0,.16-.12.34-.17.52v0a14.41,14.41,0,1,0,28.13,5.79A14.52,14.52,0,0,0,139.33,248.08Z"/></g></g></svg>