<svg xmlns="http://www.w3.org/2000/svg" viewBox="32 139 187 187"><defs><style>.a{fill:#9c393c}.b{fill:#e46664}.c{fill:#e08585}.d{fill:#fff}.e{fill:#354b67}</style></defs><path class="a" d="M101.88,371c14.25-8.21,32.35-11,47.79-4.69,9.63,3.93,18.07,10.05,25.85,17a82.13,82.13,0,1,0-91,6.13C88,381.41,94.36,375.29,101.88,371Z"/><path class="b" d="M193.5,264c-7-8.43-13.28-13.26-19.31-17.93s-11.86-9.18-17.44-16.92c-9.53-12.94-10.35-15.64-8.56-19.57a8.87,8.87,0,0,1,7.22-4.78c4.63-.39,7.94-2.57,9.84-6.48a11.27,11.27,0,0,0-13.17-15.64,11.19,11.19,0,0,0-7.61,7c-.39,1.3-1.94,4.83-4.33,5.75a4.37,4.37,0,0,1-3.91-.63c-2.64-1.58-2.43-4.88.68-10.68,3.08-5.35,3.21-9.5.45-14.8s-8.74-6.73-11.85-6.73h-.14c-3.1,0-9.09,1.42-11.85,6.73s-2.63,9.45.44,14.77c3.12,5.83,3.34,9.13.69,10.71a4.37,4.37,0,0,1-3.91.63c-2.39-.92-3.94-4.45-4.34-5.77a11.17,11.17,0,0,0-7.59-6.94,11.27,11.27,0,0,0-13.17,15.64c1.89,3.91,5.2,6.09,9.84,6.48a8.87,8.87,0,0,1,7.21,4.78c1.79,3.93,1,6.63-8.56,19.59-5.58,7.72-11.33,12.17-17.44,16.9s-12.28,9.5-19.3,17.92C43.67,280.05,36.79,301.71,38,325A85.28,85.28,0,0,0,50.21,364l.26.42c5.14,7.79,13.73,4.74,14.77,4.33l.1,0A6.8,6.8,0,0,0,69.51,364a9.56,9.56,0,0,0-1.88-7.82c-.1-.12-8.43-10.95-10.53-31.74A68.85,68.85,0,0,1,70,278.4a1.87,1.87,0,0,1,2.72-.25A2,2,0,0,1,73,281h0a65.64,65.64,0,0,0-12,43.11c1.9,18.91,9.36,29.22,9.68,29.65a13.24,13.24,0,0,1,2.64,11.21,10.74,10.74,0,0,1-5.23,6.83,13.79,13.79,0,0,1-1.34.64l-.41.15-.27.11h0c-.62.22-1.15.39-1.58.52l3.36,8c3.94,9.54,17.43,9.65,18,9.65h16.44c8.49,0,12-5.49,12.69-8.35l2.46-9.2a67.36,67.36,0,0,0,7.32.39h1.38a67.24,67.24,0,0,0,7.32-.39l2.45,9.16c.67,2.9,4.21,8.39,12.7,8.39H165c.58,0,14.07-.11,18-9.64l3.4-8.05-.12,0a14.22,14.22,0,0,1-3.76-1.43l-.67-.47a10.71,10.71,0,0,1-4.31-6.25c-1.46-5.84,2-10.43,2.7-11.29.09-.1,7.7-10.44,9.63-29.6a65.9,65.9,0,0,0-12.34-43.52h0a2.16,2.16,0,0,1,.4-2.24l.28-.23a2.06,2.06,0,0,1,2.58.3,68.78,68.78,0,0,1,13,46c-2,20-9.6,30.56-10.46,31.7-.06.07-3,3.63-2,7.9a6.67,6.67,0,0,0,2.42,3.77l.46.36a11.12,11.12,0,0,0,3,1.08l.1,0,.3.07.88.16h0a11.37,11.37,0,0,0,11.92-5.08l.26-.42a85.25,85.25,0,0,0,12.16-39C214.09,301.71,207.21,280.05,193.5,264Z"/><path class="a" d="M110,227.71a1.47,1.47,0,0,1-1.38-2,17.79,17.79,0,0,1,33.47,0,1.46,1.46,0,1,1-2.75,1,14.86,14.86,0,0,0-28,0A1.46,1.46,0,0,1,110,227.71Z"/><path class="a" d="M148.23,287.55a1.46,1.46,0,0,0-1.46,1.46,20.41,20.41,0,0,1-40.82.55,12.18,12.18,0,0,0,4.28-5.5,1.44,1.44,0,0,0-.92-1.83,1.46,1.46,0,0,0-1.85.91c-.08.23-2,5.73-9.8,6.32a1.46,1.46,0,0,0,.11,2.92h.11a16.56,16.56,0,0,0,5.24-1.22A23.33,23.33,0,0,0,149.69,289,1.46,1.46,0,0,0,148.23,287.55Z"/><circle class="c" cx="95.92" cy="193.06" r="6.09"/><circle class="c" cx="154.68" cy="193.06" r="6.09"/><circle class="c" cx="125.44" cy="175.57" r="6.99"/><path class="c" d="M143.92,343.12c-3.13,3.14-10.22,5.33-18.48,5.33s-15.35-2.19-18.48-5.32c3.86-4.6,10.69-7.66,18.48-7.66S140.07,338.53,143.92,343.12Z"/><path class="c" d="M94.36,356.64c2-2.47,6.56-4.19,11.87-4.19s9.85,1.72,11.87,4.19a14.71,14.71,0,0,1-23.74,0Z"/><path class="c" d="M133,356.64c2-2.47,6.56-4.19,11.86-4.19s9.85,1.72,11.86,4.19a14.69,14.69,0,0,1-23.72,0Z"/><circle class="d" cx="125.49" cy="254.67" r="20.97"/><path class="e" d="M139.33,248.08v0c-.07-.27-.15-.52-.24-.78,0,0,0-.1-.05-.15l-.27-.72a.42.42,0,0,1,0-.1c-.11-.25-.22-.5-.34-.74l-.15-.29c-.07-.14-.14-.28-.22-.41a3.35,3.35,0,0,0-.21-.36c-.12-.22-.27-.43-.39-.65a5.41,5.41,0,0,0-.7-1h0l-.16-.19,0,0c-.13-.17-.28-.33-.42-.49l0,0,0,0a.8.8,0,0,0-1.37.72,7.82,7.82,0,1,1-15.39,1.92,7.73,7.73,0,0,1,1.91-5.11.8.8,0,0,0-.88-1.28,14.35,14.35,0,0,0-6.45,4.85l0,0c-.12.17-.25.34-.37.52l0,.08c-.11.16-.21.32-.31.48l-.08.13-.25.43c0,.07-.07.13-.1.2l-.2.38-.12.26-.15.32c0,.11-.1.23-.14.34a1.86,1.86,0,0,0-.1.25c-.06.14-.11.28-.16.42s0,.1,0,.16-.12.34-.17.52v0a14.41,14.41,0,1,0,28.13,5.79A14.52,14.52,0,0,0,139.33,248.08Z"/></svg>
